<svg xmlns="http://www.w3.org/2000/svg" width="20" height="20" fill="none">
    <path fill="currentColor"
          d="M3.767 4.945 1.16 2.34l1.18-1.18 16.498 16.5-1.179 1.179-2.758-2.758A9.124 9.124 0 0 1 10 17.5C5.507 17.5 1.77 14.267.984 10a9.152 9.152 0 0 1 2.784-5.055h-.001Zm8.53 8.531-1.22-1.22a2.5 2.5 0 0 1-3.333-3.334l-1.22-1.22a4.167 4.167 0 0 0 5.774 5.774ZM6.646 3.133A9.157 9.157 0 0 1 10 2.5c4.493 0 8.232 3.233 9.016 7.5a9.122 9.122 0 0 1-1.677 3.826l-3.216-3.216a4.166 4.166 0 0 0-4.734-4.734L6.645 3.134Z"/>
</svg>
