<svg xmlns="http://www.w3.org/2000/svg" width="76" height="40" fill="currentColor">
    <path
          d="M48.574 18.264c1.705.117 2.876-.823 2.934-2.41.118-1.646-.823-2.759-2.523-2.935-1.646-.118-2.934.881-3.052 2.523-.059 1.587.995 2.704 2.64 2.822ZM34.244 19.557c-1.09 0-2.514.326-4.346 1.474v-1.415H22.79v.294c1.881.823 2.64 1.998 2.64 4.354v7.398c-.406.262-.79.384-1.13.384-.719 0-1.22-.565-1.22-1.564v-6.403c0-2.935-2.524-4.58-6.462-4.58-.873 0-2.754.067-4.531.895-1.293-.606-2.79-.896-4.219-.896-4.287 0-7.868 2.758-7.868 7.34 0 4.462 3.405 7.049 7.339 7.049 1.307 0 2.383-.285 3.097-.71-.203-.208-.538-.602-.687-1.04-.276.19-.931.316-1.28.316-2.328-.004-3.54-1.804-3.54-5.729 0-3.816 1.41-6.109 3.757-6.109.39 0 1.09.095 1.84.33-.564.398-.899 1.054-.899 1.904 0 1.47 1 2.351 2.469 2.351 1.528 0 2.405-.882 2.405-2.351 0-.8-.284-1.447-.809-1.859.746-.221 1.66-.37 2.75-.37 2.116 0 2.188 1.175 2.174 2.875l-.013 1.909c-6.828 2.03-8.56 2.821-8.56 5.019 0 1.94 1.234 3.473 4.065 3.473 1.714 0 3.468-.737 4.608-1.95.425 1.253 1.695 1.945 3.545 1.945 1.072 0 2.175-.249 3.17-.936v3.812c0 1.587-.53 2.057-1.94 2.057h-.47V40h9.278v-1.176h-.411c-1.41 0-1.999-.47-1.999-2.057V32.96c1.298.655 2.478.927 3.64.927 3.993 0 6.756-2.582 6.756-7.285.009-4.368-2.519-7.045-6.041-7.045ZM16.509 31.77c-1.234 0-1.705-.823-1.705-1.822 0-1.727 1.253-2.586 3.794-3.418l-.036 4.336c-.705.638-1.402.904-2.053.904Zm15.795.53c-.769 0-1.592-.218-2.41-.652v-9.202c1.126-.538 1.768-.66 2.41-.66 2.234 0 3.11 1.705 3.11 5.051.005 3.663-.994 5.462-3.11 5.462ZM31.25 13.271c0 3.17 3.934 4.699 7.515 4.699 4.58 0 7.28-2.293 7.28-5.386 0-1.976-1.112-3.233-2.961-4.246 1.424-.922 2.432-2.202 2.432-3.934 0-3.17-3.58-4.404-6.927-4.404-3.997 0-6.873 1.881-6.873 5.168 0 1.818.863 2.985 2.37 3.925-1.52 1.031-2.836 2.365-2.836 4.178Zm7.398-12.095c.94 0 2.993.203 2.993 3.391a7.55 7.55 0 0 1-.56 2.844c-.258-.104-.52-.203-.792-.303-1.47-.529-3.993-1.248-3.993-3.477.005-1.284.706-2.455 2.352-2.455Zm-.882 9.572c1.293.47 3.816 1.294 3.816 3.464 0 1.47-1.058 2.64-2.934 2.64-2.058 0-3.347-1.469-3.347-3.757 0-1.117.276-2.157.778-3.007.52.222 1.085.439 1.687.66Z"/>
    <path
          d="M75.469 32.593c-1.153 0-1.588-.47-1.588-2.057v-15.56h-7.167v.294c1.94.764 2.641 1.764 2.641 4.572v11.571c0 .877-.176 1.244-.868 1.244-.656 0-.895-.362-.895-1.244V24.08c0-2.935-2.582-4.58-6.462-4.58-3.817 0-5.698 1.586-5.698 3.404 0 1.41 1.09 2.293 2.47 2.293 1.45 0 2.405-.882 2.405-2.352 0-.89-.353-1.591-.995-1.99.57-.153 1.135-.244 1.642-.244 1.528 0 2.188 1.068 2.175 2.876l-.014 1.909c-6.828 2.03-8.56 2.821-8.56 5.019 0 .592.118 1.148.357 1.632-.18.045-.357.072-.533.072-.94 0-1.235-.646-1.235-2.523v-8.338l2.058-.47v-1.162h-2.116v-2.6h-.294c-.823 1.94-2.022 2.6-4.852 2.6h-8.596v.28c1.88.823 2.64 2.116 2.64 4.404v6.227c0 1.587-.587 2.057-1.998 2.057h-.412v1.176h9.103v-1.176h-.294c-1.41 0-1.94-.47-1.94-2.057V20.79h2.175V29.6c0 2.64 1.587 4.228 4.17 4.228.763 0 1.853-.15 2.947-.76.66.516 1.606.828 2.876.828 1.669 0 3.369-.697 4.509-1.85.235 1.289 1.184 1.727 3.006 1.727h9.442v-1.175h-.1v-.005ZM61.02 31.77c-1.099 0-1.704-.764-1.704-1.822 0-1.646 1.252-2.573 3.793-3.414l-.031 4.332c-.706.638-1.402.904-2.058.904ZM23.378 13.036c2.56 1.054 3.11 1.529 3.11 2.496 0 .819-.718 1.262-1.88 1.262-2.058 0-4.052-1.117-4.875-2.7h-.529v4.17h1.058l.326-1.48c1.212.67 3.039 1.244 4.843 1.244 3.038 0 5.403-1.587 5.403-3.933 0-2.176-1.207-3.324-4.024-4.54-2.668-1.154-3.432-1.859-3.432-2.74 0-.706.588-1.235 1.6-1.235 2.008 0 4.03 1.121 4.803 2.36h.47V4.174h-1.058l-.299 1.383c-1.085-.56-2.672-1.148-4.59-1.148-3.237 0-5.33 1.51-5.33 3.992 0 2.058 1.401 3.433 4.404 4.635Z"/>
</svg>
