<svg xmlns="http://www.w3.org/2000/svg" viewBox="0 0 200 48">
    <path fill="#000"
          d="M150.934 9.483c3.098.208 5.228-1.455 5.325-4.27.213-2.909-1.491-4.892-4.589-5.213-2.982-.208-5.344 1.568-5.557 4.477-.097 2.833 1.82 4.798 4.821 5.006ZM124.891 11.769c-1.975 0-4.57.585-7.9 2.607v-2.494h-12.915v.529c3.408 1.454 4.802 3.532 4.802 7.707v13.11c-.736.453-1.433.68-2.053.68-1.316 0-2.207-1.001-2.207-2.777V19.778c0-5.214-4.589-8.123-11.734-8.123-1.588 0-4.996.114-8.23 1.587-2.361-1.077-5.072-1.587-7.667-1.587-7.784 0-14.29 4.893-14.29 13.016 0 7.915 6.196 12.486 13.341 12.486 2.382 0 4.338-.51 5.635-1.266-.368-.358-.987-1.076-1.24-1.85-.503.34-1.684.566-2.323.566-4.22-.019-6.428-3.193-6.428-10.163 0-6.763 2.556-10.824 6.835-10.824.697 0 1.975.17 3.35.585-1.027.7-1.646 1.87-1.646 3.363 0 2.607 1.82 4.156 4.473 4.156 2.769 0 4.376-1.568 4.376-4.156 0-1.417-.523-2.57-1.472-3.306 1.355-.397 3.02-.661 4.996-.661 3.834 0 3.97 2.078 3.95 5.1l-.02 3.382c-12.411 3.608-15.548 5.006-15.548 8.897 0 3.438 2.246 6.158 7.377 6.158 3.118 0 6.293-1.303 8.365-3.457.775 2.23 3.079 3.438 6.448 3.438 1.956 0 3.95-.453 5.77-1.662v6.763c0 2.814-.968 3.645-3.524 3.645h-.852v2.078h16.865v-2.078h-.794c-2.556 0-3.621-.83-3.621-3.645v-6.744c2.363 1.171 4.512 1.643 6.622 1.643 7.262 0 12.277-4.571 12.277-12.902-.02-7.688-4.609-12.448-11.018-12.448Zm-32.22 21.667c-2.246 0-3.098-1.455-3.098-3.23 0-3.06 2.266-4.59 6.893-6.064l-.058 7.688c-1.278 1.114-2.556 1.606-3.737 1.606Zm28.696.925c-1.394 0-2.885-.377-4.376-1.152V16.907c2.033-.964 3.214-1.171 4.376-1.171 4.047 0 5.654 3.022 5.654 8.953 0 6.48-1.801 9.672-5.654 9.672ZM22.306 31.017c0 5.63 7.145 8.33 13.651 8.33 8.326 0 13.225-4.06 13.225-9.539 0-3.494-2.014-5.723-5.383-7.537 2.575-1.643 4.415-3.891 4.415-6.97 0-5.63-6.506-7.802-12.586-7.802-7.261 0-12.49 3.325-12.49 9.162 0 3.23 1.57 5.289 4.3 6.951-2.75 1.833-5.132 4.194-5.132 7.405Zm13.438-21.44c1.704 0 5.441.359 5.441 6.007 0 1.983-.445 3.665-1.026 5.044-.465-.19-.949-.36-1.433-.548-2.672-.945-7.261-2.21-7.261-6.158 0-2.267 1.297-4.345 4.279-4.345ZM34.137 26.54c2.343.832 6.932 2.286 6.932 6.14 0 2.606-1.917 4.684-5.325 4.684-3.737 0-6.08-2.606-6.08-6.668 0-1.983.503-3.816 1.414-5.327.948.397 1.975.794 3.059 1.171Z"/>
    <path fill="#000"
          d="M199.787 34.89c-2.091 0-2.885-.831-2.885-3.646V3.664H183.89v.53c3.524 1.36 4.802 3.116 4.802 8.103v20.496c0 1.55-.329 2.21-1.568 2.191-1.182 0-1.627-.642-1.627-2.19V19.796c0-5.214-4.686-8.123-11.734-8.123-6.932 0-10.34 2.815-10.34 6.045 0 2.493 1.975 4.061 4.473 4.061 2.634 0 4.376-1.568 4.376-4.156 0-1.567-.639-2.814-1.801-3.532 1.027-.264 2.053-.434 2.982-.434 2.769 0 3.97 1.889 3.95 5.1l-.019 3.381c-12.412 3.608-15.548 5.006-15.548 8.898 0 1.057.213 2.04.658 2.89a4.416 4.416 0 0 1-.968.132c-1.704 0-2.246-1.152-2.246-4.477V14.79l3.737-.831V11.9h-3.834V7.31h-.542c-1.491 3.438-3.679 4.61-8.81 4.61h-15.626v.49c3.408 1.455 4.802 3.741 4.802 7.802v11.032c0 2.815-1.065 3.646-3.621 3.646h-.755v2.078h16.536V34.89h-.543c-2.555 0-3.524-.831-3.524-3.646V13.96h3.931v15.603c0 4.685 2.885 7.5 7.571 7.5 1.394 0 3.369-.265 5.364-1.342 1.2.907 2.923 1.455 5.228 1.455 3.02 0 6.118-1.228 8.19-3.287.426 2.286 2.149 3.06 5.46 3.06H200v-2.078h-.213v.02Zm-26.237-1.455c-1.994 0-3.098-1.36-3.098-3.23 0-2.928 2.285-4.552 6.893-6.045l-.058 7.67c-1.297 1.114-2.556 1.605-3.737 1.605ZM7.997 30.602c4.647 1.87 5.654 2.701 5.654 4.42 0 1.455-1.297 2.23-3.408 2.23-3.737 0-7.358-1.984-8.849-4.78H.426v7.386h1.917l.6-2.626c2.208 1.19 5.519 2.21 8.791 2.21 5.518 0 9.817-2.814 9.817-6.97 0-3.854-2.188-5.894-7.32-8.047-4.84-2.04-6.234-3.287-6.234-4.855 0-1.247 1.065-2.191 2.904-2.191 3.64 0 7.32 1.983 8.714 4.174h.852v-6.668H18.55l-.542 2.456c-1.956-1.001-4.841-2.04-8.327-2.04C3.795 15.3 0 17.983 0 22.385c0 3.645 2.556 6.082 7.997 8.217ZM56.579 38.139c3.098.208 5.228-1.455 5.324-4.27.213-2.908-1.49-4.892-4.589-5.213-2.981-.208-5.344 1.568-5.557 4.477-.077 2.834 1.84 4.798 4.822 5.006Z"/>
</svg>