<svg xmlns="http://www.w3.org/2000/svg" width="20" height="20" fill="currentColor">
    <path
            d="M10.033 10.324a4.973 4.973 0 0 0 4.964-4.964A4.973 4.973 0 0 0 10.033.396c-2.765 0-4.994 2.23-4.994 4.964 0 2.735 2.23 4.964 4.994 4.964Zm0-7.015c1.13 0 2.05.922 2.05 2.051 0 1.13-.92 2.051-2.05 2.051a2.055 2.055 0 0 1-2.051-2.05c-.03-1.13.891-2.052 2.05-2.052ZM12.024 14.396a9.396 9.396 0 0 0 2.883-1.19 1.448 1.448 0 0 0 .446-2.02 1.448 1.448 0 0 0-2.021-.447 6.312 6.312 0 0 1-6.688 0 1.48 1.48 0 0 0-2.022.446c-.386.684-.178 1.576.506 1.992a9.397 9.397 0 0 0 2.883 1.189L5.247 17.13a1.453 1.453 0 0 0 0 2.051c.297.297.653.416 1.04.416a1.54 1.54 0 0 0 1.04-.416l2.735-2.735 2.734 2.735a1.453 1.453 0 0 0 2.051 0 1.453 1.453 0 0 0 0-2.05l-2.823-2.735Z"/>
    <path
            d="M10.033 10.324a4.973 4.973 0 0 0 4.964-4.964A4.973 4.973 0 0 0 10.033.396c-2.765 0-4.994 2.23-4.994 4.964 0 2.735 2.23 4.964 4.994 4.964Zm0-7.015c1.13 0 2.05.922 2.05 2.051 0 1.13-.92 2.051-2.05 2.051a2.055 2.055 0 0 1-2.051-2.05c-.03-1.13.891-2.052 2.05-2.052ZM12.024 14.396a9.392 9.392 0 0 0 2.883-1.19 1.448 1.448 0 0 0 .446-2.02 1.448 1.448 0 0 0-2.021-.447 6.312 6.312 0 0 1-6.688 0 1.48 1.48 0 0 0-2.022.446c-.386.684-.178 1.576.506 1.992a9.397 9.397 0 0 0 2.883 1.189L5.247 17.13a1.453 1.453 0 0 0 0 2.051c.297.297.653.416 1.04.416a1.54 1.54 0 0 0 1.04-.416l2.735-2.735 2.734 2.735a1.453 1.453 0 0 0 2.051 0 1.453 1.453 0 0 0 0-2.05l-2.823-2.735Z"/>
</svg>
