<svg xmlns="http://www.w3.org/2000/svg" width="20" height="20" fill="none">
    <path fill="currentColor" fill-rule="evenodd"
          d="M.575 4.167H3.63l.26.8c1.05 3.06 2.916 5.754 3.702 5.754.296 0 .33-.243.33-.87V6.74c0-.938-.33-1.342-.58-1.647-.152-.185-.274-.334-.274-.544v-.383h4.677v4.99c0 .482.099.661.314.661.267 0 .512-.16.996-.695 1.504-1.653 2.739-4.277 2.739-4.277l.26-.556h2.9c.453 0 .646.244.558.678-.262 1.216-2.898 4.92-2.898 4.92-.244.383-.348.591 0 .956.098.125.28.309.492.524.319.323.709.718.991 1.094C19.25 13.677 20 14.703 20 15.278c0 .434-.244.555-.506.555h-2.968l-2.038-2.03-.038-.038c-1.296-1.274-1.85-1.374-2.163-1.374-.28 0-.473.209-.473.696v1.947c0 .573-.33.8-1.692.8-2.234 0-4.713-1.374-6.597-3.912C.715 8.148-.001 5.332-.001 4.723c0-.33.244-.556.576-.556Z"
          clip-rule="evenodd"/>
</svg>
